<svg
   xmlns="http://www.w3.org/2000/svg"
   xmlns:xlink="http://www.w3.org/1999/xlink"
   viewBox="0 0 172 172"
   height="172"
   width="172">
   <defs>
      <linearGradient
         id="linearGradient4191">
         <stop
            style="stop-color:#5e300e"
            offset="0" />
         <stop
            offset="0.75955856"
            style="stop-color:#7b390f" />
         <stop
            style="stop-color:#311503"
            offset="1" />
      </linearGradient>
      <radialGradient
         xlink:href="#linearGradient4191"
         id="radialGradient4197"
         cx="434"
         cy="86"
         fx="434"
         fy="86"
         r="86"
         gradientUnits="userSpaceOnUse"
         gradientTransform="matrix(1,0,0,-1,-348,172)" />
      <linearGradient
         xlink:href="#linearGradient4191"
         id="linearGradient4645"
         x1="0"
         y1="43"
         x2="86"
         y2="43"
         gradientUnits="userSpaceOnUse"
         gradientTransform="rotate(90,43,43)" />
      <linearGradient
         xlink:href="#linearGradient4191"
         id="linearGradient4645-6"
         x1="0"
         y1="43"
         x2="86"
         y2="43"
         gradientUnits="userSpaceOnUse"
         gradientTransform="matrix(1,0,0,-1,86,86)" />
   </defs>
   <path
      d="M 86,172 V 86 h 86 a 86,86 0 0 1 -86,86 z"
      style="opacity:1;fill:url(#radialGradient4197)" />
   <path
      d="m 119,86 c 0,18.2254 -14.7746,33 -33,33"
      style="fill:none;stroke:#1b0b00;stroke-width:3;stroke-miterlimit:4" />
   <path
      d="m 110.5,86 c 0,13.53098 -10.96902,24.5 -24.5,24.5"
      style="fill:none;stroke:#1b0b00;stroke-width:5;stroke-miterlimit:4" />
   <path
      d="m 102,86 c 0,8.83656 -7.16344,16 -16,16"
      style="fill:none;stroke:#1b0b00;stroke-width:1;stroke-miterlimit:4" />
   <path
      d="M 172,86 H 86 V 0 h 86 z"
      style="opacity:1;fill:url(#linearGradient4645-6)" />
   <path
      d="M 119,0 V 86"
      style="fill:none;stroke:#1b0b00;stroke-width:3;stroke-miterlimit:4" />
   <path
      d="M 110.5,0 V 86"
      style="fill:none;stroke:#1b0b00;stroke-width:5;stroke-miterlimit:4" />
   <path
      d="M 102,0 V 86"
      style="fill:none;stroke:#1b0b00;stroke-width:1;stroke-miterlimit:4" />
   <g transform="matrix(-1,0,0,1,86,86)">
      <path
         d="M 86,86 V 0 H 0 v 86 z"
         style="fill:url(#linearGradient4645)" />
      <path
         d="M 0,33 H 86"
         style="fill:none;stroke:#1b0b00;stroke-width:3;stroke-miterlimit:4" />
      <path
         d="M 0,24.5 H 86"
         style="fill:none;stroke:#1b0b00;stroke-width:5;stroke-miterlimit:4" />
      <path
         d="M 0,16 H 86"
         style="fill:none;stroke:#1b0b00;stroke-width:1;stroke-miterlimit:4" />
   </g>
</svg>
