<svg
   xmlns="http://www.w3.org/2000/svg"
   xmlns:xlink="http://www.w3.org/1999/xlink"
   viewBox="0 0 172 172"
   height="172"
   width="172">
   <defs>
      <linearGradient
         id="linearGradient4191">
         <stop
            style="stop-color:#5e300e"
            offset="0" />
         <stop
         offset="0.75955856"
            style="stop-color:#7b390f" />
         <stop
            style="stop-color:#311503"
            offset="1" />
      </linearGradient>
      <radialGradient
         xlink:href="#linearGradient4191"
         id="radialGradient4197"
         cx="434"
         cy="86"
         fx="434"
         fy="86"
         r="86"
         gradientUnits="userSpaceOnUse"
         gradientTransform="matrix(-1,0,0,1,520,0)" />
      <linearGradient
         xlink:href="#linearGradient4191"
         id="linearGradient4645"
         x1="0"
         y1="43"
         x2="86"
         y2="43"
         gradientUnits="userSpaceOnUse"
         gradientTransform="rotate(90,43,43)" />
      <linearGradient
         xlink:href="#linearGradient4191"
         id="linearGradient4645-6"
         x1="0"
         y1="43"
         x2="86"
         y2="43"
         gradientUnits="userSpaceOnUse"
         gradientTransform="matrix(-1,0,0,1,86,86)" />
   </defs>
   <path
      d="M 86,0 V 86 H 0 A 86,86 0 0 1 86,0 Z"
      style="fill:url(#radialGradient4197)" />
   <path
      d="M 53,86 C 53,67.7746 67.7746,53 86,53"
      style="fill:none;stroke:#1b0b00;stroke-width:3;stroke-miterlimit:4" />
   <path
      d="M 61.5,86 C 61.5,72.46902 72.46902,61.5 86,61.5"
      style="fill:none;stroke:#1b0b00;stroke-width:5;stroke-miterlimit:4" />
   <path
      d="M 70,86 C 70,77.16344 77.16344,70 86,70"
      style="fill:none;stroke:#1b0b00;stroke-width:1;stroke-miterlimit:4" />
   <path
      d="m 0,86 h 86 v 86 H 0 Z"
      style="fill:url(#linearGradient4645-6)" />
   <path
      d="M 53,172 V 86"
      style="fill:none;stroke:#1b0b00;stroke-width:3;stroke-miterlimit:4" />
   <path
      d="M 61.5,172 V 86"
      style="fill:none;stroke:#1b0b00;stroke-width:5;stroke-miterlimit:4" />
   <path
      d="M 70,172 V 86"
      style="fill:none;stroke:#1b0b00;stroke-width:1;stroke-miterlimit:4" />
   <g transform="matrix(1,0,0,-1,86,86)">
      <path
         d="M 86,86 V 0 H 0 v 86 z"
         style="fill:url(#linearGradient4645)" />
      <path
         d="M 0,33 H 86"
         style="fill:none;stroke:#1b0b00;stroke-width:3;stroke-miterlimit:4" />
      <path
         d="M 0,24.5 H 86"
         style="fill:none;stroke:#1b0b00;stroke-width:5;stroke-miterlimit:4" />
      <path
         d="M 0,16 H 86"
         style="fill:none;stroke:#1b0b00;stroke-width:1;stroke-miterlimit:4" />
   </g>
</svg>
