<?xml version="1.0" encoding="UTF-8" standalone="no"?>
<svg
   xmlns:dc="http://purl.org/dc/elements/1.1/"
   xmlns:cc="http://creativecommons.org/ns#"
   xmlns:rdf="http://www.w3.org/1999/02/22-rdf-syntax-ns#"
   xmlns:svg="http://www.w3.org/2000/svg"
   xmlns="http://www.w3.org/2000/svg"
   id="svg6"
   version="1.1"
   width="24"
   height="24"
   viewBox="0 0 24 24">
  <metadata
     id="metadata12">
    <rdf:RDF>
      <cc:Work
         rdf:about="">
        <dc:format>image/svg+xml</dc:format>
        <dc:type
           rdf:resource="http://purl.org/dc/dcmitype/StillImage" />
        <dc:title></dc:title>
      </cc:Work>
    </rdf:RDF>
  </metadata>
  <defs
     id="defs10" />
  <path
     id="path2"
     d="M 16.033203 3.4121094 L 16.958984 11.630859 L 19.095703 9.4941406 C 19.996139 12.033547 19.480169 14.910235 17.626953 16.998047 C 15.659833 19.214183 12.632864 20.039944 9.8691406 19.220703 L 8.8164062 22.791016 C 12.939367 24.004708 17.488158 22.766994 20.414062 19.470703 C 23.561516 15.924817 24.124252 10.797445 21.912109 6.6777344 L 23.90625 4.6835938 L 16.033203 3.4121094 z "
     style="fill:#1b0b00" />
  <path
     id="path4"
     d="M 11.644531 0.75585938 C 8.6273505 0.85443501 5.6876544 2.1615263 3.5859375 4.5292969 C 0.43848484 8.0751826 -0.12425149 13.202556 2.0878906 17.322266 L 0.09375 19.316406 L 7.9667969 20.587891 L 7.0410156 12.369141 L 4.9042969 14.505859 C 4.0038605 11.966453 4.5198305 9.0897649 6.3730469 7.0019531 C 8.3401919 4.7857868 11.367105 3.9600011 14.130859 4.7792969 L 15.179688 1.2265625 C 14.018505 0.88472058 12.82759 0.71720721 11.644531 0.75585938 z "
     style="fill:#1b0b00" />
</svg>
