<svg
      xmlns="http://www.w3.org/2000/svg"
      width="21"
      height="21"
      viewBox="0 0 22 22">
   <path
      d="M 7.7653724,0.704126 C 3.5876271,1.6484042 0.74695696,5.6710318 0.35777575,9.3162955 0.01353817,12.266412 0.97761909,15.169959 2.8988845,17.315674 L 0.49103026,20.711066 9.8603353,19.509094 8.0824597,10.001834 5.3123024,13.90842 C 4.5264264,12.712884 4.1567919,11.260484 4.3296132,9.7794055 4.6121613,7.3579681 6.2730923,5.3348277 8.5934056,4.5869384 Z"
      style="fill:#1b0b00" />
   <path
      d="m 13.234627,20.295874 c 4.177746,-0.944278 7.018416,-4.966906 7.407597,-8.612169 C 20.986462,8.7335883 20.022381,5.8300406 18.101115,3.6843262 L 20.50897,0.28893429 11.139664,1.4909064 12.91754,10.998166 15.687697,7.0915803 c 0.785877,1.1955362 1.155511,2.6479361 0.98269,4.1290147 -0.282549,2.421437 -1.94348,4.444578 -4.263792,5.192466 z"
      style="fill:#1b0b00" />
</svg>
