<svg
   xmlns="http://www.w3.org/2000/svg"
   viewBox="0 0 22 22"
   height="21"
   width="21">
  <path
     d="M 4.6356863,6.1511364 C 4.0578091,6.1334889 3.4782599,6.1547518 2.9449249,6.2194253 1.3652561,6.410984 -3.5805765e-5,6.8797553 -3.5805765e-5,6.8797549 c 0,7e-7 -0.111310514235,3.7776041 1.555402805765,5.8332181 1.666713,2.055613 3.7223369,2.3894 5.6112786,2.0005 1.8889419,-0.3889 2.2777691,-1.333463 3.3333534,-1.333463 1.055586,0 1.444414,0.944563 3.333355,1.333463 1.888942,0.3889 3.944566,0.05512 5.611279,-2.0005 1.666713,-2.055614 1.555403,-5.8332181 1.555403,-5.8332181 0,0 -1.365293,-0.4687709 -2.944961,-0.6603296 -1.06667,-0.12935 -2.317163,-0.08578 -3.372986,0.097556 -2.091605,0.3631914 -2.688852,1.3962651 -4.18209,1.3962651 -1.4932358,0 -2.0904836,-1.0330737 -4.1820875,-1.3962651 C 5.7899996,6.2253131 5.2135635,6.1687841 4.6356863,6.1511364 Z m 0.2280364,2.4645001 c 0.473143,-0.014125 1.003345,0.049477 1.5596709,0.2109639 1.1161627,0.331731 2.2154762,1.165483 2.5090091,2.0602526 -0.7400371,0.587018 -2.0639964,0.802505 -3.6132172,0.370102 -1.1178351,-0.312 -1.8463728,-0.888091 -2.2004895,-2.0200106 0.326872,-0.35846 0.9564549,-0.59776 1.7450267,-0.6213079 z m 11.2725543,0 c 0.788572,0.023549 1.418155,0.2628479 1.745026,0.6213079 -0.354116,1.1319196 -1.082654,1.7080106 -2.200489,2.0200106 -1.549221,0.432403 -2.87318,0.216916 -3.613217,-0.370102 0.293533,-0.8947696 1.392846,-1.7285216 2.50901,-2.0602526 0.556325,-0.161483 1.086527,-0.225093 1.55967,-0.2109639 z"
     style="fill:#1b0b00;fill-rule:evenodd" />
</svg>
