<svg
   xmlns="http://www.w3.org/2000/svg"
   xmlns:xlink="http://www.w3.org/1999/xlink"
   width="206"
   height="206"
   viewBox="0 0 172 172">
   <defs>
      <linearGradient
         id="linearGradient4191">
         <stop
            offset="0"
            style="stop-color:#5e300e" />
         <stop
            style="stop-color:#7b390f"
            offset="0.75955856" />
         <stop
            offset="1"
            style="stop-color:#311503" />
      </linearGradient>
      <radialGradient
         gradientTransform="matrix(-1,0,0,1,520,0)"
         gradientUnits="userSpaceOnUse"
         r="86"
         fy="86"
         fx="434"
         cy="86"
         cx="434"
         id="radialGradient4197"
         xlink:href="#linearGradient4191" />
      <linearGradient
         gradientTransform="matrix(-1,0,0,1,86,86)"
         gradientUnits="userSpaceOnUse"
         y2="43"
         x2="86"
         y1="43"
         x1="0"
         id="linearGradient4645-6"
         xlink:href="#linearGradient4191" />
      <linearGradient
         gradientTransform="matrix(0,-1,1,0,0,86)"
         gradientUnits="userSpaceOnUse"
         y2="43"
         x2="86"
         y1="43"
         x1="0"
         id="linearGradient4645-3"
         xlink:href="#linearGradient4191" />
   </defs>
   <path
      style="fill:url(#radialGradient4197)"
      d="M 86,0 V 86 H 0 A 86,86 0 0 1 86,0 Z" />
   <path
      style="fill:none;stroke:#1b0b00;stroke-width:3;stroke-miterlimit:4"
      d="M 53,86 C 53,67.7746 67.7746,53 86,53" />
   <path
      style="fill:none;stroke:#1b0b00;stroke-width:5;stroke-miterlimit:4"
      d="M 61.5,86 C 61.5,72.46902 72.46902,61.5 86,61.5" />
   <path
      style="fill:none;stroke:#1b0b00;stroke-width:1;stroke-miterlimit:4"
      d="M 70,86 C 70,77.16344 77.16344,70 86,70" />
   <path
      style="fill:url(#linearGradient4645-6)"
      d="m 0,86 h 86 v 86 H 0 Z" />
   <path
      style="fill:none;stroke:#1b0b00;stroke-width:3;stroke-miterlimit:4"
      d="M 53,172 V 86" />
   <path
      style="fill:none;stroke:#1b0b00;stroke-width:5;stroke-miterlimit:4"
      d="M 61.5,172 V 86" />
   <path
      style="fill:none;stroke:#1b0b00;stroke-width:1;stroke-miterlimit:4"
      d="M 70,172 V 86" />
   <path
      style="fill:url(#linearGradient4645-3)"
      d="M 86,0 86,86 172,86 172,0 Z" />
   <path
      style="fill:none;stroke:#1b0b00;stroke-width:3;stroke-miterlimit:4"
      d="M 172,53 86,53" />
   <path
      style="fill:none;stroke:#1b0b00;stroke-width:5;stroke-miterlimit:4"
      d="M 172,61.5 86,61.5" />
   <path
      style="fill:none;stroke:#1b0b00;stroke-width:1;stroke-miterlimit:4"
      d="M 172,70 86,70" />
   <path
      d="M 86,86 V 99.688165 A 13.688729,13.688729 0 0 1 99.688165,86 Z"
      style="fill:#5e300e" />
</svg>
